<svg width="16" height="11" viewBox="0 0 16 11" fill="none" xmlns="http://www.w3.org/2000/svg">
<path d="M8.14851 6.27127L8.14849 6.27125L8.14422 6.27398C8.11563 6.29228 8.07199 6.30654 8.0235 6.30654H8.02008C7.95069 6.30654 7.9067 6.28427 7.89357 6.27374L7.89287 6.27318L1.15094 0.889258H14.8848L8.45868 6.02712L8.45829 6.02743L8.17346 6.25575L8.17258 6.2563L8.14851 6.27127ZM10.0345 6.62298L14.9586 10.4562H1.0362L5.97134 6.59416L6.97299 7.39455L6.9741 7.39543C7.26731 7.62804 7.64062 7.74843 8.02235 7.74843C8.40375 7.74843 8.77727 7.62702 9.07064 7.39381L9.07155 7.39308L10.0345 6.62298ZM4.80733 5.66445L0.4 9.11395V2.14476L4.80733 5.66445ZM15.6 2.17401V9.1188L11.1992 5.6924L15.6 2.17401Z" stroke="white" stroke-width="0.8"/>
</svg>
