<svg width="11" height="16" viewBox="0 0 11 16" fill="none" xmlns="http://www.w3.org/2000/svg">
<path d="M1.95685 1.97678C3.9115 0.103757 7.08881 0.103791 9.04312 1.97675C9.90549 2.80322 10.4029 4.01491 10.4872 5.28039C10.5715 6.54604 10.2392 7.81652 9.50609 8.7533L9.50017 8.76086L9.49455 8.76863L5.5 14.2974L1.50545 8.76863L1.49983 8.76086L1.49391 8.7533C0.760775 7.81652 0.428477 6.54604 0.512787 5.28039C0.597084 4.01491 1.09448 2.80325 1.95685 1.97678ZM1.95685 1.97678L1.61092 1.61576M1.95685 1.97678L1.61092 1.61576M1.61092 1.61576C3.75895 -0.442559 7.24136 -0.442559 9.38908 1.61576C11.3244 3.47052 11.5423 6.96282 9.89984 9.06145H1.10016C-0.542253 6.96282 -0.324394 3.47052 1.61092 1.61576ZM3.23807 5.29163C3.23807 6.54861 4.29491 7.53155 5.55356 7.53155C6.81221 7.53155 7.86905 6.54861 7.86905 5.29163C7.86905 4.03465 6.81221 3.05171 5.55356 3.05171C4.29491 3.05171 3.23807 4.03465 3.23807 5.29163Z" stroke="white"/>
</svg>
