<svg width="49" height="49" viewBox="0 0 49 49" fill="none" xmlns="http://www.w3.org/2000/svg">
<path d="M24.4999 38.6478C32.3136 38.6478 38.6478 32.3136 38.6478 24.4999C38.6478 16.6863 32.3136 10.3521 24.4999 10.3521C16.6863 10.3521 10.3521 16.6863 10.3521 24.4999C10.3521 32.3136 16.6863 38.6478 24.4999 38.6478Z" fill="#0DC332"/>
<path d="M31 21L23.6154 29L19 25.4444" stroke="#F6F6F6" stroke-width="2" stroke-miterlimit="10" stroke-linecap="round" stroke-linejoin="round"/>
<path d="M45.7396 24.5002C45.7396 36.2304 36.2304 45.7396 24.5002 45.7396C12.77 45.7396 3.26074 36.2304 3.26074 24.5002C3.26074 12.77 12.77 3.26074 24.5002 3.26074C36.2304 3.26074 45.7396 12.77 45.7396 24.5002Z" stroke="#D1D1D1"/>
<path d="M45.7396 24.5002C45.7396 36.2304 36.2304 45.7396 24.5002 45.7396C12.77 45.7396 3.26074 36.2304 3.26074 24.5002C3.26074 12.77 12.77 3.26074 24.5002 3.26074C36.2304 3.26074 45.7396 12.77 45.7396 24.5002Z" stroke="#D1D1D1"/>
</svg>
