<svg width="17" height="16" viewBox="0 0 17 16" fill="none" xmlns="http://www.w3.org/2000/svg">
<path d="M13.1697 14.2826L13.1594 14.2922L13.1497 14.3024C13.1005 14.3539 13.0242 14.4104 12.9061 14.4641L12.9059 14.4642C12.7883 14.5177 12.6805 14.5497 12.5816 14.5649C12.5491 14.5669 12.5135 14.5703 12.4856 14.5729L12.4815 14.5733C12.4814 14.5733 12.4814 14.5733 12.4813 14.5733C12.4465 14.5766 12.3903 14.5791 12.308 14.5791C12.132 14.5791 11.8153 14.5494 11.3369 14.4804C10.909 14.4187 10.361 14.2626 9.68486 13.9984L9.68485 13.9984C9.02616 13.741 8.26558 13.3493 7.40073 12.8164L7.40072 12.8164C6.55694 12.2966 5.64661 11.5749 4.66986 10.6439L4.66989 10.6439L4.66519 10.6395C3.88907 9.9185 3.2534 9.23562 2.75404 8.59111C2.24544 7.93462 1.84269 7.3357 1.54167 6.79363L1.54166 6.79362C1.23524 6.24189 1.01189 5.75306 0.865825 5.32535C0.712929 4.87762 0.614202 4.50586 0.563677 4.20587C0.509432 3.8838 0.493947 3.66354 0.501958 3.52764C0.509739 3.39566 0.515709 3.29107 0.518325 3.22882C0.533617 3.14659 0.564575 3.05444 0.61733 2.95145C0.671454 2.84579 0.728942 2.77602 0.783877 2.72943L0.793856 2.72097L0.803378 2.71199L3.05761 0.5875C3.13003 0.51925 3.19046 0.5 3.25706 0.5C3.30732 0.5 3.33504 0.511673 3.35829 0.528103C3.41621 0.569043 3.46657 0.618889 3.51024 0.680124L5.31219 3.90202L5.31202 3.90212L5.31924 3.91421C5.35224 3.9695 5.36406 4.02429 5.34535 4.10803C5.32132 4.21563 5.27435 4.29638 5.20226 4.36432L4.37176 5.14703L4.37175 5.14703C4.26565 5.24703 4.21249 5.36738 4.18398 5.448C4.15792 5.52168 4.12994 5.62234 4.12994 5.73453V5.78455L4.13985 5.83358C4.19823 6.12243 4.32319 6.42593 4.49515 6.73901C4.64921 7.02867 4.87621 7.36391 5.16576 7.74049C5.47131 8.13787 5.89345 8.58138 6.42258 9.06948C6.94102 9.56871 7.41348 9.9681 7.8384 10.2599L7.83847 10.26C8.24358 10.5381 8.59792 10.7537 8.89619 10.8973C9.16889 11.0285 9.42157 11.1303 9.63078 11.1697L9.84227 11.2096L9.88821 11.2182H9.93496C10.0417 11.2182 10.1437 11.1874 10.1949 11.1713L10.1952 11.1712C10.2732 11.1467 10.3945 11.1 10.4983 11.0022L10.4983 11.0022L10.5014 10.9992L11.4537 10.086C11.5622 9.99893 11.682 9.95633 11.8333 9.95633C11.9777 9.95633 12.0344 9.98154 12.0447 9.98736L12.1593 10.0522H12.178L15.3309 11.8073C15.4601 11.8835 15.497 11.9472 15.5097 11.9888C15.5148 12.0515 15.4985 12.1037 15.4231 12.1749C15.4229 12.1751 15.4227 12.1753 15.4225 12.1755L13.1697 14.2826Z" stroke="white"/>
</svg>
