<svg width="49" height="49" viewBox="0 0 49 49" fill="none" xmlns="http://www.w3.org/2000/svg">
<path fill-rule="evenodd" clip-rule="evenodd" d="M24.5 7.65625C15.1975 7.65625 7.65625 15.1975 7.65625 24.5C7.65625 33.8025 15.1975 41.3438 24.5 41.3438C33.8025 41.3438 41.3438 33.8025 41.3438 24.5C41.3438 15.1975 33.8025 7.65625 24.5 7.65625ZM4.59375 24.5C4.59375 13.5061 13.5061 4.59375 24.5 4.59375C35.4939 4.59375 44.4062 13.5061 44.4062 24.5C44.4062 35.4939 35.4939 44.4062 24.5 44.4062C13.5061 44.4062 4.59375 35.4939 4.59375 24.5Z" fill="#333333"/>
<path fill-rule="evenodd" clip-rule="evenodd" d="M24.5 16.8438C21.1173 16.8438 18.375 19.586 18.375 22.9688C18.375 26.3515 21.1173 29.0938 24.5 29.0938C27.8827 29.0938 30.625 26.3515 30.625 22.9688C30.625 19.586 27.8827 16.8438 24.5 16.8438ZM15.3125 22.9688C15.3125 17.8946 19.4259 13.7812 24.5 13.7812C29.5741 13.7812 33.6875 17.8946 33.6875 22.9688C33.6875 28.0429 29.5741 32.1562 24.5 32.1562C19.4259 32.1562 15.3125 28.0429 15.3125 22.9688Z" fill="#333333"/>
<path fill-rule="evenodd" clip-rule="evenodd" d="M24.5 32.1553C22.2378 32.1553 20.0198 32.7817 18.0918 33.9651C16.1638 35.1485 14.6012 36.8427 13.5771 38.8598C13.1943 39.6139 12.2726 39.9148 11.5186 39.532C10.7645 39.1491 10.4636 38.2275 10.8464 37.4734C12.1265 34.952 14.0798 32.8343 16.4898 31.355C18.8998 29.8758 21.6723 29.0928 24.5 29.0928C27.3278 29.0928 30.1003 29.8758 32.5103 31.355C34.9203 32.8343 36.8736 34.952 38.1537 37.4734C38.5365 38.2275 38.2356 39.1491 37.4815 39.532C36.7274 39.9148 35.8058 39.6139 35.423 38.8598C34.3989 36.8427 32.8362 35.1485 30.9082 33.9651C28.9803 32.7817 26.7622 32.1553 24.5 32.1553Z" fill="#333333"/>
</svg>
